<?xml version="1.0" encoding="iso-8859-1"?>
<!-- Uploaded to: SVG Repo, www.svgrepo.com, Generator: SVG Repo Mixer Tools -->
<!DOCTYPE svg PUBLIC "-//W3C//DTD SVG 1.1//EN" "http://www.w3.org/Graphics/SVG/1.1/DTD/svg11.dtd">
<svg fill="#000000" height="800px" width="800px" version="1.1" id="Capa_1" xmlns="http://www.w3.org/2000/svg" xmlns:xlink="http://www.w3.org/1999/xlink" 
	 viewBox="0 0 288.155 288.155" xml:space="preserve">
<path d="M268.716,115.677c-10.702,0-19.378,8.649-19.434,19.337c-23.02-0.545-45.599,6.505-66.54,17.426l-32.435-95.787
	c7.676-2.599,13.208-9.846,13.208-18.4c0-10.736-8.703-19.439-19.439-19.439s-19.439,8.703-19.439,19.439
	c0,8.554,5.532,15.801,13.208,18.4l-32.474,95.903c-20.929-10.91-43.492-17.95-66.497-17.406c0-0.012,0.002-0.023,0.002-0.035
	c0-10.736-8.703-19.439-19.439-19.439S0,124.38,0,135.116c0,10.736,8.703,19.439,19.439,19.439c6.321,0,11.92-3.031,15.471-7.703
	c13.722,11.857,32.076,37.776,35.311,92.514c-8.053,0.264-14.505,6.858-14.505,14.975c0,8.284,6.716,15,15,15h146.724
	c8.284,0,15-6.716,15-15c0-8.12-6.456-14.716-14.513-14.975c3.208-54.749,21.53-80.705,35.257-92.596
	c3.547,4.72,9.174,7.786,15.533,7.786c10.736,0,19.439-8.703,19.439-19.439C288.155,124.38,279.452,115.677,268.716,115.677z"/>
</svg>